# xmcd CD database file generated by Grip 3.1.2
# 
# Track frame offsets:
#       150
#       13114
#       28346
#       48654
#       69004
#       98109
#       117447
#       145824
#       163812
#       188096
#       211347
# 
# Disc length: 3132 seconds
# 
# Revision: 1
# Processed by: cddbd v1.5PL3 Copyright (c) Steve Scherf et al.
# Submitted via: Grip 3.1.2
# 
DISCID=9a0c3a0b
DTITLE=Vince Weber and Michael Maass - into it
DYEAR=2001
DGENRE=Blues
TTITLE0=Into it
TTITLE1=Ramblin' with that woman
TTITLE2=Pinetop's Boogie Woogie
TTITLE3=I don't know
TTITLE4=Evil
TTITLE5=Rock it
TTITLE6=Melina
TTITLE7=He was a friend of mine
TTITLE8=You can't trust your neighbour
TTITLE9=Boogie Woogie Country Girl
TTITLE10=Love Potion No. 9
EXTD=
EXTT0=
EXTT1=
EXTT2=
EXTT3=
EXTT4=
EXTT5=
EXTT6=
EXTT7=
EXTT8=
EXTT9=
EXTT10=
PLAYORDER=
